<svg width="206" height="242" viewBox="0 0 206 242" fill="none" xmlns="http://www.w3.org/2000/svg">
<g filter="url(#filter0_d_155_2186)">
<ellipse cx="103" cy="94" rx="73" ry="74" fill="#D1ECFF"/>
</g>
<path d="M99.6587 63.164C100.774 62.4076 102.119 62 103.5 62C104.881 62 106.226 62.4076 107.341 63.164L134.964 81.8886C138.601 84.3502 136.728 89.6917 132.232 89.702H74.7644C70.268 89.6917 68.3994 84.3502 72.0323 81.8886L99.6549 63.164H99.6587ZM107.222 76.7338C107.222 75.8169 106.83 74.9375 106.132 74.2891C105.434 73.6408 104.487 73.2765 103.5 73.2765C102.513 73.2765 101.566 73.6408 100.868 74.2891C100.17 74.9375 99.7778 75.8169 99.7778 76.7338C99.7778 77.6507 100.17 78.5301 100.868 79.1785C101.566 79.8268 102.513 80.1911 103.5 80.1911C104.487 80.1911 105.434 79.8268 106.132 79.1785C106.83 78.5301 107.222 77.6507 107.222 76.7338ZM100.708 110.442H93.2639V93.1559H100.708V110.442ZM113.736 110.442H106.292V93.1559H113.736V110.442ZM127.694 110.442H119.319V93.1559H127.694V110.442ZM128.625 113.9H78.375C76.1538 113.9 74.0236 114.719 72.453 116.178C70.8824 117.637 70 119.615 70 121.678V123.407C70 124.842 71.2507 126 72.7917 126H134.208C134.949 126 135.659 125.727 136.182 125.241C136.706 124.754 137 124.095 137 123.407V121.678C137 119.615 136.118 117.637 134.547 116.178C132.976 114.719 130.846 113.9 128.625 113.9ZM87.6806 110.442H79.3056V93.1559H87.6806V110.442Z" fill="#38ACFF"/>
<path d="M27.4483 232.168C26.3283 232.168 25.3203 231.976 24.4243 231.592C23.5283 231.192 22.8243 230.632 22.3123 229.912C21.8003 229.192 21.5443 228.352 21.5443 227.392H24.4723C24.5363 228.112 24.8163 228.704 25.3123 229.168C25.8243 229.632 26.5363 229.864 27.4483 229.864C28.3923 229.864 29.1283 229.64 29.6563 229.192C30.1843 228.728 30.4483 228.136 30.4483 227.416C30.4483 226.856 30.2803 226.4 29.9443 226.048C29.6243 225.696 29.2163 225.424 28.7203 225.232C28.2403 225.04 27.5683 224.832 26.7043 224.608C25.6163 224.32 24.7283 224.032 24.0403 223.744C23.3683 223.44 22.7923 222.976 22.3123 222.352C21.8323 221.728 21.5923 220.896 21.5923 219.856C21.5923 218.896 21.8323 218.056 22.3123 217.336C22.7923 216.616 23.4643 216.064 24.3283 215.68C25.1923 215.296 26.1923 215.104 27.3283 215.104C28.9443 215.104 30.2643 215.512 31.2883 216.328C32.3283 217.128 32.9043 218.232 33.0163 219.64H29.9923C29.9443 219.032 29.6563 218.512 29.1283 218.08C28.6003 217.648 27.9043 217.432 27.0403 217.432C26.2563 217.432 25.6163 217.632 25.1203 218.032C24.6243 218.432 24.3763 219.008 24.3763 219.76C24.3763 220.272 24.5283 220.696 24.8323 221.032C25.1523 221.352 25.5523 221.608 26.0323 221.8C26.5123 221.992 27.1683 222.2 28.0003 222.424C29.1043 222.728 30.0003 223.032 30.6883 223.336C31.3923 223.64 31.9843 224.112 32.4643 224.752C32.9603 225.376 33.2083 226.216 33.2083 227.272C33.2083 228.12 32.9763 228.92 32.5123 229.672C32.0643 230.424 31.4003 231.032 30.5203 231.496C29.6563 231.944 28.6323 232.168 27.4483 232.168ZM42.1727 232.216C40.9247 232.216 39.7967 231.936 38.7887 231.376C37.7807 230.8 36.9887 230 36.4127 228.976C35.8367 227.936 35.5487 226.736 35.5487 225.376C35.5487 224.032 35.8447 222.84 36.4367 221.8C37.0287 220.76 37.8367 219.96 38.8607 219.4C39.8847 218.84 41.0287 218.56 42.2927 218.56C43.5567 218.56 44.7007 218.84 45.7247 219.4C46.7487 219.96 47.5567 220.76 48.1487 221.8C48.7407 222.84 49.0367 224.032 49.0367 225.376C49.0367 226.72 48.7327 227.912 48.1247 228.952C47.5167 229.992 46.6847 230.8 45.6287 231.376C44.5887 231.936 43.4367 232.216 42.1727 232.216ZM42.1727 229.84C42.8767 229.84 43.5327 229.672 44.1407 229.336C44.7647 229 45.2687 228.496 45.6527 227.824C46.0367 227.152 46.2287 226.336 46.2287 225.376C46.2287 224.416 46.0447 223.608 45.6767 222.952C45.3087 222.28 44.8207 221.776 44.2127 221.44C43.6047 221.104 42.9487 220.936 42.2447 220.936C41.5407 220.936 40.8847 221.104 40.2767 221.44C39.6847 221.776 39.2127 222.28 38.8607 222.952C38.5087 223.608 38.3327 224.416 38.3327 225.376C38.3327 226.8 38.6927 227.904 39.4127 228.688C40.1487 229.456 41.0687 229.84 42.1727 229.84ZM57.2854 221.008H54.8374V232H52.0774V221.008H50.5174V218.776H52.0774V217.84C52.0774 216.32 52.4774 215.216 53.2774 214.528C54.0934 213.824 55.3654 213.472 57.0934 213.472V215.752C56.2614 215.752 55.6774 215.912 55.3414 216.232C55.0054 216.536 54.8374 217.072 54.8374 217.84V218.776H57.2854V221.008ZM62.9022 221.008V228.328C62.9022 228.824 63.0142 229.184 63.2382 229.408C63.4782 229.616 63.8782 229.72 64.4382 229.72H66.1182V232H63.9582C62.7262 232 61.7822 231.712 61.1262 231.136C60.4702 230.56 60.1422 229.624 60.1422 228.328V221.008H58.5822V218.776H60.1422V215.488H62.9022V218.776H66.1182V221.008H62.9022ZM86.3998 218.776L82.2958 232H79.4158L76.7518 222.232L74.0878 232H71.2078L67.0798 218.776H69.8638L72.6238 229.408L75.4318 218.776H78.2878L80.9758 229.36L83.7118 218.776H86.3998ZM87.5325 225.328C87.5325 224 87.8045 222.824 88.3485 221.8C88.9085 220.776 89.6605 219.984 90.6045 219.424C91.5645 218.848 92.6205 218.56 93.7725 218.56C94.8125 218.56 95.7165 218.768 96.4845 219.184C97.2685 219.584 97.8925 220.088 98.3565 220.696V218.776H101.117V232H98.3565V230.032C97.8925 230.656 97.2605 231.176 96.4605 231.592C95.6605 232.008 94.7485 232.216 93.7245 232.216C92.5885 232.216 91.5485 231.928 90.6045 231.352C89.6605 230.76 88.9085 229.944 88.3485 228.904C87.8045 227.848 87.5325 226.656 87.5325 225.328ZM98.3565 225.376C98.3565 224.464 98.1645 223.672 97.7805 223C97.4125 222.328 96.9245 221.816 96.3165 221.464C95.7085 221.112 95.0525 220.936 94.3485 220.936C93.6445 220.936 92.9885 221.112 92.3805 221.464C91.7725 221.8 91.2765 222.304 90.8925 222.976C90.5245 223.632 90.3405 224.416 90.3405 225.328C90.3405 226.24 90.5245 227.04 90.8925 227.728C91.2765 228.416 91.7725 228.944 92.3805 229.312C93.0045 229.664 93.6605 229.84 94.3485 229.84C95.0525 229.84 95.7085 229.664 96.3165 229.312C96.9245 228.96 97.4125 228.448 97.7805 227.776C98.1645 227.088 98.3565 226.288 98.3565 225.376ZM107.446 220.696C107.846 220.024 108.374 219.504 109.03 219.136C109.702 218.752 110.494 218.56 111.406 218.56V221.392H110.71C109.638 221.392 108.822 221.664 108.262 222.208C107.718 222.752 107.446 223.696 107.446 225.04V232H104.71V218.776H107.446V220.696ZM126.041 225.064C126.041 225.56 126.009 226.008 125.945 226.408H115.841C115.921 227.464 116.313 228.312 117.017 228.952C117.721 229.592 118.585 229.912 119.609 229.912C121.081 229.912 122.121 229.296 122.729 228.064H125.681C125.281 229.28 124.553 230.28 123.497 231.064C122.457 231.832 121.161 232.216 119.609 232.216C118.345 232.216 117.209 231.936 116.201 231.376C115.209 230.8 114.425 230 113.849 228.976C113.289 227.936 113.009 226.736 113.009 225.376C113.009 224.016 113.281 222.824 113.825 221.8C114.385 220.76 115.161 219.96 116.153 219.4C117.161 218.84 118.313 218.56 119.609 218.56C120.857 218.56 121.969 218.832 122.945 219.376C123.921 219.92 124.681 220.688 125.225 221.68C125.769 222.656 126.041 223.784 126.041 225.064ZM123.185 224.2C123.169 223.192 122.809 222.384 122.105 221.776C121.401 221.168 120.529 220.864 119.489 220.864C118.545 220.864 117.737 221.168 117.065 221.776C116.393 222.368 115.993 223.176 115.865 224.2H123.185ZM137.704 214.24V232H134.968V214.24H137.704ZM140.384 225.328C140.384 224 140.656 222.824 141.2 221.8C141.76 220.776 142.512 219.984 143.456 219.424C144.416 218.848 145.472 218.56 146.624 218.56C147.664 218.56 148.568 218.768 149.336 219.184C150.12 219.584 150.744 220.088 151.208 220.696V218.776H153.968V232H151.208V230.032C150.744 230.656 150.112 231.176 149.312 231.592C148.512 232.008 147.6 232.216 146.576 232.216C145.44 232.216 144.4 231.928 143.456 231.352C142.512 230.76 141.76 229.944 141.2 228.904C140.656 227.848 140.384 226.656 140.384 225.328ZM151.208 225.376C151.208 224.464 151.016 223.672 150.632 223C150.264 222.328 149.776 221.816 149.168 221.464C148.56 221.112 147.904 220.936 147.2 220.936C146.496 220.936 145.84 221.112 145.232 221.464C144.624 221.8 144.128 222.304 143.744 222.976C143.376 223.632 143.192 224.416 143.192 225.328C143.192 226.24 143.376 227.04 143.744 227.728C144.128 228.416 144.624 228.944 145.232 229.312C145.856 229.664 146.512 229.84 147.2 229.84C147.904 229.84 148.56 229.664 149.168 229.312C149.776 228.96 150.264 228.448 150.632 227.776C151.016 227.088 151.208 226.288 151.208 225.376ZM160.298 220.744C160.762 220.104 161.394 219.584 162.194 219.184C163.01 218.768 163.914 218.56 164.906 218.56C166.074 218.56 167.13 218.84 168.074 219.4C169.018 219.96 169.762 220.76 170.306 221.8C170.85 222.824 171.122 224 171.122 225.328C171.122 226.656 170.85 227.848 170.306 228.904C169.762 229.944 169.01 230.76 168.05 231.352C167.106 231.928 166.058 232.216 164.906 232.216C163.882 232.216 162.97 232.016 162.17 231.616C161.386 231.216 160.762 230.704 160.298 230.08V232H157.562V214.24H160.298V220.744ZM168.338 225.328C168.338 224.416 168.146 223.632 167.762 222.976C167.394 222.304 166.898 221.8 166.274 221.464C165.666 221.112 165.01 220.936 164.306 220.936C163.618 220.936 162.962 221.112 162.338 221.464C161.73 221.816 161.234 222.328 160.85 223C160.482 223.672 160.298 224.464 160.298 225.376C160.298 226.288 160.482 227.088 160.85 227.776C161.234 228.448 161.73 228.96 162.338 229.312C162.962 229.664 163.618 229.84 164.306 229.84C165.01 229.84 165.666 229.664 166.274 229.312C166.898 228.944 167.394 228.416 167.762 227.728C168.146 227.04 168.338 226.24 168.338 225.328ZM178.627 232.216C177.587 232.216 176.651 232.032 175.819 231.664C175.003 231.28 174.355 230.768 173.875 230.128C173.395 229.472 173.139 228.744 173.107 227.944H175.939C175.987 228.504 176.251 228.976 176.731 229.36C177.227 229.728 177.843 229.912 178.579 229.912C179.347 229.912 179.939 229.768 180.355 229.48C180.787 229.176 181.003 228.792 181.003 228.328C181.003 227.832 180.763 227.464 180.283 227.224C179.819 226.984 179.075 226.72 178.051 226.432C177.059 226.16 176.251 225.896 175.627 225.64C175.003 225.384 174.459 224.992 173.995 224.464C173.547 223.936 173.323 223.24 173.323 222.376C173.323 221.672 173.531 221.032 173.947 220.456C174.363 219.864 174.955 219.4 175.723 219.064C176.507 218.728 177.403 218.56 178.411 218.56C179.915 218.56 181.123 218.944 182.035 219.712C182.963 220.464 183.459 221.496 183.523 222.808H180.787C180.739 222.216 180.499 221.744 180.067 221.392C179.635 221.04 179.051 220.864 178.315 220.864C177.595 220.864 177.043 221 176.659 221.272C176.275 221.544 176.083 221.904 176.083 222.352C176.083 222.704 176.211 223 176.467 223.24C176.723 223.48 177.035 223.672 177.403 223.816C177.771 223.944 178.315 224.112 179.035 224.32C179.995 224.576 180.779 224.84 181.387 225.112C182.011 225.368 182.547 225.752 182.995 226.264C183.443 226.776 183.675 227.456 183.691 228.304C183.691 229.056 183.483 229.728 183.067 230.32C182.651 230.912 182.059 231.376 181.291 231.712C180.539 232.048 179.651 232.216 178.627 232.216Z" fill="#2976DF"/>
<defs>
<filter id="filter0_d_155_2186" x="0" y="0" width="206" height="208" filterUnits="userSpaceOnUse" color-interpolation-filters="sRGB">
<feFlood flood-opacity="0" result="BackgroundImageFix"/>
<feColorMatrix in="SourceAlpha" type="matrix" values="0 0 0 0 0 0 0 0 0 0 0 0 0 0 0 0 0 0 127 0" result="hardAlpha"/>
<feOffset dy="10"/>
<feGaussianBlur stdDeviation="15"/>
<feComposite in2="hardAlpha" operator="out"/>
<feColorMatrix type="matrix" values="0 0 0 0 0.32549 0 0 0 0 0.635294 0 0 0 0 0.752941 0 0 0 0.2 0"/>
<feBlend mode="normal" in2="BackgroundImageFix" result="effect1_dropShadow_155_2186"/>
<feBlend mode="normal" in="SourceGraphic" in2="effect1_dropShadow_155_2186" result="shape"/>
</filter>
</defs>
</svg>
