<svg width="206" height="242" viewBox="0 0 206 242" fill="none" xmlns="http://www.w3.org/2000/svg">
<g filter="url(#filter0_d_155_2178)">
<ellipse cx="103" cy="94" rx="73" ry="74" fill="#D1ECFF"/>
</g>
<path fill-rule="evenodd" clip-rule="evenodd" d="M88.3705 116.919C91.9568 118.577 95.325 120.752 98.475 123.446C99.6417 124.482 100.983 125 102.5 125C104.017 125 105.358 124.482 106.525 123.446C109.675 120.752 113.044 118.577 116.633 116.919C120.219 115.261 123.967 114.122 127.875 113.5C129.625 113.224 131.083 112.343 132.25 110.856C133.417 109.373 134 107.664 134 105.73V76.5141C134 73.8896 133.242 71.7305 131.725 70.0369C130.208 68.3461 128.429 67.708 126.387 68.1224C121.896 69.0203 117.623 70.6434 113.57 72.9917C109.515 75.34 105.825 78.379 102.5 82.1087C99.175 78.379 95.486 75.34 91.433 72.9917C87.3777 70.6434 83.1042 69.0203 78.6125 68.1224C76.5708 67.708 74.7917 68.3461 73.275 70.0369C71.7583 71.7305 71 73.8896 71 76.5141V105.73C71 107.664 71.5833 109.373 72.75 110.856C73.9167 112.343 75.375 113.224 77.125 113.5C81.0333 114.122 84.7818 115.261 88.3705 116.919Z" fill="#38ACFF"/>
<path d="M66.579 229.792H72.219V232H63.843V215.32H66.579V229.792ZM75.899 217.024C75.403 217.024 74.987 216.856 74.651 216.52C74.315 216.184 74.147 215.768 74.147 215.272C74.147 214.776 74.315 214.36 74.651 214.024C74.987 213.688 75.403 213.52 75.899 213.52C76.379 213.52 76.787 213.688 77.123 214.024C77.459 214.36 77.627 214.776 77.627 215.272C77.627 215.768 77.459 216.184 77.123 216.52C76.787 216.856 76.379 217.024 75.899 217.024ZM77.243 218.776V232H74.507V218.776H77.243ZM83.5712 220.744C84.0352 220.104 84.6672 219.584 85.4672 219.184C86.2832 218.768 87.1872 218.56 88.1792 218.56C89.3472 218.56 90.4032 218.84 91.3472 219.4C92.2912 219.96 93.0352 220.76 93.5792 221.8C94.1232 222.824 94.3952 224 94.3952 225.328C94.3952 226.656 94.1232 227.848 93.5792 228.904C93.0352 229.944 92.2832 230.76 91.3232 231.352C90.3792 231.928 89.3312 232.216 88.1792 232.216C87.1552 232.216 86.2432 232.016 85.4432 231.616C84.6592 231.216 84.0352 230.704 83.5712 230.08V232H80.8352V214.24H83.5712V220.744ZM91.6112 225.328C91.6112 224.416 91.4192 223.632 91.0352 222.976C90.6672 222.304 90.1712 221.8 89.5472 221.464C88.9392 221.112 88.2832 220.936 87.5792 220.936C86.8912 220.936 86.2352 221.112 85.6112 221.464C85.0032 221.816 84.5072 222.328 84.1232 223C83.7552 223.672 83.5712 224.464 83.5712 225.376C83.5712 226.288 83.7552 227.088 84.1232 227.776C84.5072 228.448 85.0032 228.96 85.6112 229.312C86.2352 229.664 86.8912 229.84 87.5792 229.84C88.2832 229.84 88.9392 229.664 89.5472 229.312C90.1712 228.944 90.6672 228.416 91.0352 227.728C91.4192 227.04 91.6112 226.24 91.6112 225.328ZM99.8368 220.696C100.237 220.024 100.765 219.504 101.421 219.136C102.093 218.752 102.885 218.56 103.797 218.56V221.392H103.101C102.029 221.392 101.213 221.664 100.653 222.208C100.109 222.752 99.8368 223.696 99.8368 225.04V232H97.1008V218.776H99.8368V220.696ZM105.4 225.328C105.4 224 105.672 222.824 106.216 221.8C106.776 220.776 107.528 219.984 108.472 219.424C109.432 218.848 110.488 218.56 111.64 218.56C112.68 218.56 113.584 218.768 114.352 219.184C115.136 219.584 115.76 220.088 116.224 220.696V218.776H118.984V232H116.224V230.032C115.76 230.656 115.128 231.176 114.328 231.592C113.528 232.008 112.616 232.216 111.592 232.216C110.456 232.216 109.416 231.928 108.472 231.352C107.528 230.76 106.776 229.944 106.216 228.904C105.672 227.848 105.4 226.656 105.4 225.328ZM116.224 225.376C116.224 224.464 116.032 223.672 115.648 223C115.28 222.328 114.792 221.816 114.184 221.464C113.576 221.112 112.92 220.936 112.216 220.936C111.512 220.936 110.856 221.112 110.248 221.464C109.64 221.8 109.144 222.304 108.76 222.976C108.392 223.632 108.208 224.416 108.208 225.328C108.208 226.24 108.392 227.04 108.76 227.728C109.144 228.416 109.64 228.944 110.248 229.312C110.872 229.664 111.528 229.84 112.216 229.84C112.92 229.84 113.576 229.664 114.184 229.312C114.792 228.96 115.28 228.448 115.648 227.776C116.032 227.088 116.224 226.288 116.224 225.376ZM125.313 220.696C125.713 220.024 126.241 219.504 126.897 219.136C127.569 218.752 128.361 218.56 129.273 218.56V221.392H128.577C127.505 221.392 126.689 221.664 126.129 222.208C125.585 222.752 125.313 223.696 125.313 225.04V232H122.577V218.776H125.313V220.696ZM143.692 218.776L135.58 238.216H132.748L135.436 231.784L130.228 218.776H133.276L136.996 228.856L140.86 218.776H143.692Z" fill="#2976DF"/>
<defs>
<filter id="filter0_d_155_2178" x="0" y="0" width="206" height="208" filterUnits="userSpaceOnUse" color-interpolation-filters="sRGB">
<feFlood flood-opacity="0" result="BackgroundImageFix"/>
<feColorMatrix in="SourceAlpha" type="matrix" values="0 0 0 0 0 0 0 0 0 0 0 0 0 0 0 0 0 0 127 0" result="hardAlpha"/>
<feOffset dy="10"/>
<feGaussianBlur stdDeviation="15"/>
<feComposite in2="hardAlpha" operator="out"/>
<feColorMatrix type="matrix" values="0 0 0 0 0.32549 0 0 0 0 0.635294 0 0 0 0 0.752941 0 0 0 0.2 0"/>
<feBlend mode="normal" in2="BackgroundImageFix" result="effect1_dropShadow_155_2178"/>
<feBlend mode="normal" in="SourceGraphic" in2="effect1_dropShadow_155_2178" result="shape"/>
</filter>
</defs>
</svg>
