<svg width="206" height="242" viewBox="0 0 206 242" fill="none" xmlns="http://www.w3.org/2000/svg">
<g filter="url(#filter0_d_155_2182)">
<ellipse cx="103" cy="94" rx="73" ry="74" fill="#D1ECFF"/>
</g>
<path fill-rule="evenodd" clip-rule="evenodd" d="M88.36 64C87.7341 64 87.1338 64.1607 86.6912 64.4466C86.2486 64.7326 86 65.1204 86 65.5249V70.0994C86 70.5039 86.2486 70.8917 86.6912 71.1777C87.1338 71.4636 87.7341 71.6243 88.36 71.6243H90.72V75.0903C90.0295 75.248 89.4317 75.5403 89.0091 75.9267C88.5864 76.3131 88.3596 76.7748 88.36 77.248V117.37C88.358 119.158 89.328 120.889 91.1007 122.261C92.8733 123.633 95.3359 124.56 98.0581 124.878C100.78 125.196 103.589 124.887 105.994 124.003C108.399 123.119 110.246 121.718 111.214 120.043C108.495 118.615 106.304 116.812 104.799 114.767C103.295 112.722 102.517 110.485 102.52 108.221C102.517 105.853 103.369 103.518 105.008 101.4C106.646 99.2827 109.027 97.4412 111.96 96.022V77.2449C111.96 76.772 111.733 76.3107 111.31 75.9246C110.888 75.5384 110.29 75.2464 109.6 75.0888V71.6243H111.96C112.586 71.6243 113.186 71.4636 113.629 71.1777C114.071 70.8917 114.32 70.5039 114.32 70.0994V65.5249C114.32 65.1204 114.071 64.7326 113.629 64.4466C113.186 64.1607 112.586 64 111.96 64H88.36ZM95.44 75.7231V71.6243H104.88V75.7231C104.88 76.1961 105.107 76.6574 105.53 77.0435C105.952 77.4296 106.55 77.7216 107.24 77.8793V85.348H93.08V77.8793C93.7705 77.7215 94.3683 77.4293 94.7909 77.0429C95.2136 76.6564 95.4404 76.1948 95.44 75.7216V75.7231ZM132.627 114.583C131.368 115.122 129.96 115.499 128.48 115.693V117.37C129.106 117.37 129.706 117.531 130.149 117.817C130.591 118.103 130.84 118.491 130.84 118.895C130.84 119.299 130.591 119.687 130.149 119.973C129.706 120.259 129.106 120.42 128.48 120.42H123.76C123.134 120.42 122.534 120.259 122.091 119.973C121.649 119.687 121.4 119.299 121.4 118.895C121.4 118.491 121.649 118.103 122.091 117.817C122.534 117.531 123.134 117.37 123.76 117.37V115.693C122.28 115.499 120.872 115.122 119.613 114.583L117.657 115.845C118.087 116.133 118.325 116.518 118.319 116.918C118.314 117.318 118.066 117.7 117.628 117.983C117.191 118.266 116.599 118.426 115.98 118.429C115.361 118.433 114.765 118.279 114.32 118.001L110.983 115.845C110.553 115.558 110.315 115.172 110.321 114.773C110.326 114.373 110.574 113.99 111.012 113.708C111.449 113.425 112.041 113.265 112.66 113.261C113.279 113.258 113.875 113.411 114.32 113.689L116.274 112.425C115.44 111.612 114.857 110.702 114.556 109.746H111.96C111.96 110.15 111.711 110.538 111.269 110.824C110.826 111.11 110.226 111.271 109.6 111.271C108.974 111.271 108.374 111.11 107.931 110.824C107.489 110.538 107.24 110.15 107.24 109.746V106.696C107.24 106.292 107.489 105.904 107.931 105.618C108.374 105.332 108.974 105.171 109.6 105.171C110.226 105.171 110.826 105.332 111.269 105.618C111.711 105.904 111.96 106.292 111.96 106.696H114.556C114.863 105.723 115.453 104.816 116.274 104.017L114.32 102.753C113.875 103.031 113.279 103.184 112.66 103.181C112.041 103.177 111.449 103.017 111.012 102.734C110.574 102.451 110.326 102.069 110.321 101.669C110.315 101.269 110.553 100.884 110.983 100.597L112.63 99.5323L112.651 99.517C112.659 99.5124 112.667 99.5078 112.675 99.5033L114.32 98.4405C114.538 98.2948 114.798 98.1787 115.086 98.0987C115.374 98.0188 115.684 97.9768 115.997 97.975C116.31 97.9733 116.621 98.0118 116.911 98.0885C117.201 98.1652 117.465 98.2784 117.686 98.4216C117.908 98.5647 118.083 98.735 118.202 98.9224C118.32 99.1098 118.38 99.3106 118.377 99.5131C118.375 99.7155 118.31 99.9156 118.186 100.102C118.062 100.288 117.882 100.456 117.657 100.597L119.613 101.859C120.872 101.32 122.28 100.943 123.76 100.749V99.0718C123.134 99.0718 122.534 98.9111 122.091 98.6251C121.649 98.3392 121.4 97.9513 121.4 97.5469C121.4 97.1425 121.649 96.7546 122.091 96.4687C122.534 96.1827 123.134 96.022 123.76 96.022H128.48C129.106 96.022 129.706 96.1827 130.149 96.4687C130.591 96.7546 130.84 97.1425 130.84 97.5469C130.84 97.9513 130.591 98.3392 130.149 98.6251C129.706 98.9111 129.106 99.0718 128.48 99.0718V100.749C129.986 100.947 131.39 101.329 132.627 101.859L134.583 100.597C134.153 100.309 133.915 99.9238 133.921 99.524C133.926 99.1242 134.174 98.7418 134.612 98.459C135.049 98.1763 135.641 98.016 136.26 98.0125C136.879 98.009 137.475 98.1627 137.92 98.4405L141.257 100.597C141.687 100.884 141.925 101.269 141.919 101.669C141.914 102.069 141.666 102.451 141.228 102.734C140.791 103.017 140.199 103.177 139.58 103.181C138.961 103.184 138.365 103.031 137.92 102.753L135.966 104.017C136.785 104.816 137.377 105.723 137.684 106.696H140.28C140.28 106.292 140.529 105.904 140.971 105.618C141.414 105.332 142.014 105.171 142.64 105.171C143.266 105.171 143.866 105.332 144.309 105.618C144.751 105.904 145 106.292 145 106.696V109.746C145 110.15 144.751 110.538 144.309 110.824C143.866 111.11 143.266 111.271 142.64 111.271C142.014 111.271 141.414 111.11 140.971 110.824C140.529 110.538 140.28 110.15 140.28 109.746H137.684C137.383 110.702 136.8 111.612 135.966 112.425L137.92 113.689C138.138 113.543 138.398 113.427 138.686 113.347C138.974 113.267 139.284 113.225 139.597 113.224C139.91 113.222 140.221 113.26 140.511 113.337C140.801 113.414 141.065 113.527 141.286 113.67C141.508 113.813 141.683 113.984 141.802 114.171C141.92 114.358 141.98 114.559 141.977 114.762C141.975 114.964 141.91 115.164 141.786 115.35C141.662 115.536 141.482 115.705 141.257 115.845L137.92 118.001C137.475 118.279 136.879 118.433 136.26 118.429C135.641 118.426 135.049 118.266 134.612 117.983C134.174 117.7 133.926 117.318 133.921 116.918C133.915 116.518 134.153 116.133 134.583 115.845L132.627 114.583Z" fill="#38ACFF"/>
<path d="M57.7309 215.32L52.7869 232H49.6909L46.1869 219.376L42.4669 232L39.3949 232.024L34.6669 215.32H37.5709L41.0269 228.904L44.7709 215.32H47.8429L51.3229 228.832L54.8029 215.32H57.7309ZM65.7235 232.216C64.4755 232.216 63.3475 231.936 62.3395 231.376C61.3315 230.8 60.5395 230 59.9635 228.976C59.3875 227.936 59.0995 226.736 59.0995 225.376C59.0995 224.032 59.3955 222.84 59.9875 221.8C60.5795 220.76 61.3875 219.96 62.4115 219.4C63.4355 218.84 64.5795 218.56 65.8435 218.56C67.1075 218.56 68.2515 218.84 69.2755 219.4C70.2995 219.96 71.1075 220.76 71.6995 221.8C72.2915 222.84 72.5875 224.032 72.5875 225.376C72.5875 226.72 72.2835 227.912 71.6755 228.952C71.0675 229.992 70.2355 230.8 69.1795 231.376C68.1395 231.936 66.9875 232.216 65.7235 232.216ZM65.7235 229.84C66.4275 229.84 67.0835 229.672 67.6915 229.336C68.3155 229 68.8195 228.496 69.2035 227.824C69.5875 227.152 69.7795 226.336 69.7795 225.376C69.7795 224.416 69.5955 223.608 69.2275 222.952C68.8595 222.28 68.3715 221.776 67.7635 221.44C67.1555 221.104 66.4995 220.936 65.7955 220.936C65.0915 220.936 64.4355 221.104 63.8275 221.44C63.2355 221.776 62.7635 222.28 62.4115 222.952C62.0595 223.608 61.8835 224.416 61.8835 225.376C61.8835 226.8 62.2435 227.904 62.9635 228.688C63.6995 229.456 64.6195 229.84 65.7235 229.84ZM78.0282 220.696C78.4282 220.024 78.9562 219.504 79.6122 219.136C80.2842 218.752 81.0762 218.56 81.9882 218.56V221.392H81.2922C80.2202 221.392 79.4042 221.664 78.8442 222.208C78.3002 222.752 78.0282 223.696 78.0282 225.04V232H75.2922V218.776H78.0282V220.696ZM89.7351 225.4L95.8311 232H92.1351L87.2391 226.312V232H84.5031V214.24H87.2391V224.56L92.0391 218.776H95.8311L89.7351 225.4ZM102.592 232.216C101.552 232.216 100.616 232.032 99.7842 231.664C98.9682 231.28 98.3202 230.768 97.8402 230.128C97.3602 229.472 97.1042 228.744 97.0722 227.944H99.9042C99.9522 228.504 100.216 228.976 100.696 229.36C101.192 229.728 101.808 229.912 102.544 229.912C103.312 229.912 103.904 229.768 104.32 229.48C104.752 229.176 104.968 228.792 104.968 228.328C104.968 227.832 104.728 227.464 104.248 227.224C103.784 226.984 103.04 226.72 102.016 226.432C101.024 226.16 100.216 225.896 99.5922 225.64C98.9682 225.384 98.4242 224.992 97.9602 224.464C97.5122 223.936 97.2882 223.24 97.2882 222.376C97.2882 221.672 97.4962 221.032 97.9122 220.456C98.3282 219.864 98.9202 219.4 99.6882 219.064C100.472 218.728 101.368 218.56 102.376 218.56C103.88 218.56 105.088 218.944 106 219.712C106.928 220.464 107.424 221.496 107.488 222.808H104.752C104.704 222.216 104.464 221.744 104.032 221.392C103.6 221.04 103.016 220.864 102.28 220.864C101.56 220.864 101.008 221 100.624 221.272C100.24 221.544 100.048 221.904 100.048 222.352C100.048 222.704 100.176 223 100.432 223.24C100.688 223.48 101 223.672 101.368 223.816C101.736 223.944 102.28 224.112 103 224.32C103.96 224.576 104.744 224.84 105.352 225.112C105.976 225.368 106.512 225.752 106.96 226.264C107.408 226.776 107.64 227.456 107.656 228.304C107.656 229.056 107.448 229.728 107.032 230.32C106.616 230.912 106.024 231.376 105.256 231.712C104.504 232.048 103.616 232.216 102.592 232.216ZM117.453 218.56C118.461 218.56 119.357 218.776 120.141 219.208C120.941 219.64 121.565 220.28 122.013 221.128C122.477 221.976 122.709 223 122.709 224.2V232H119.997V224.608C119.997 223.424 119.701 222.52 119.109 221.896C118.517 221.256 117.709 220.936 116.685 220.936C115.661 220.936 114.845 221.256 114.237 221.896C113.645 222.52 113.349 223.424 113.349 224.608V232H110.613V214.24H113.349V220.312C113.813 219.752 114.397 219.32 115.101 219.016C115.821 218.712 116.605 218.56 117.453 218.56ZM131.934 232.216C130.686 232.216 129.558 231.936 128.55 231.376C127.542 230.8 126.75 230 126.174 228.976C125.598 227.936 125.31 226.736 125.31 225.376C125.31 224.032 125.606 222.84 126.198 221.8C126.79 220.76 127.598 219.96 128.622 219.4C129.646 218.84 130.79 218.56 132.054 218.56C133.318 218.56 134.462 218.84 135.486 219.4C136.51 219.96 137.318 220.76 137.91 221.8C138.502 222.84 138.798 224.032 138.798 225.376C138.798 226.72 138.494 227.912 137.886 228.952C137.278 229.992 136.446 230.8 135.39 231.376C134.35 231.936 133.198 232.216 131.934 232.216ZM131.934 229.84C132.638 229.84 133.294 229.672 133.902 229.336C134.526 229 135.03 228.496 135.414 227.824C135.798 227.152 135.99 226.336 135.99 225.376C135.99 224.416 135.806 223.608 135.438 222.952C135.07 222.28 134.582 221.776 133.974 221.44C133.366 221.104 132.71 220.936 132.006 220.936C131.302 220.936 130.646 221.104 130.038 221.44C129.446 221.776 128.974 222.28 128.622 222.952C128.27 223.608 128.094 224.416 128.094 225.376C128.094 226.8 128.454 227.904 129.174 228.688C129.91 229.456 130.83 229.84 131.934 229.84ZM144.239 220.72C144.703 220.112 145.335 219.6 146.135 219.184C146.935 218.768 147.839 218.56 148.847 218.56C149.999 218.56 151.047 218.848 151.991 219.424C152.951 219.984 153.703 220.776 154.247 221.8C154.791 222.824 155.063 224 155.063 225.328C155.063 226.656 154.791 227.848 154.247 228.904C153.703 229.944 152.951 230.76 151.991 231.352C151.047 231.928 149.999 232.216 148.847 232.216C147.839 232.216 146.943 232.016 146.159 231.616C145.375 231.2 144.735 230.688 144.239 230.08V238.288H141.503V218.776H144.239V220.72ZM152.279 225.328C152.279 224.416 152.087 223.632 151.703 222.976C151.335 222.304 150.839 221.8 150.215 221.464C149.607 221.112 148.951 220.936 148.247 220.936C147.559 220.936 146.903 221.112 146.279 221.464C145.671 221.816 145.175 222.328 144.791 223C144.423 223.672 144.239 224.464 144.239 225.376C144.239 226.288 144.423 227.088 144.791 227.776C145.175 228.448 145.671 228.96 146.279 229.312C146.903 229.664 147.559 229.84 148.247 229.84C148.951 229.84 149.607 229.664 150.215 229.312C150.839 228.944 151.335 228.416 151.703 227.728C152.087 227.04 152.279 226.24 152.279 225.328ZM162.569 232.216C161.529 232.216 160.593 232.032 159.761 231.664C158.945 231.28 158.297 230.768 157.817 230.128C157.337 229.472 157.081 228.744 157.049 227.944H159.881C159.929 228.504 160.193 228.976 160.673 229.36C161.169 229.728 161.785 229.912 162.521 229.912C163.289 229.912 163.881 229.768 164.297 229.48C164.729 229.176 164.945 228.792 164.945 228.328C164.945 227.832 164.705 227.464 164.225 227.224C163.761 226.984 163.017 226.72 161.993 226.432C161.001 226.16 160.193 225.896 159.569 225.64C158.945 225.384 158.401 224.992 157.937 224.464C157.489 223.936 157.265 223.24 157.265 222.376C157.265 221.672 157.473 221.032 157.889 220.456C158.305 219.864 158.897 219.4 159.665 219.064C160.449 218.728 161.345 218.56 162.353 218.56C163.857 218.56 165.065 218.944 165.977 219.712C166.905 220.464 167.401 221.496 167.465 222.808H164.729C164.681 222.216 164.441 221.744 164.009 221.392C163.577 221.04 162.993 220.864 162.257 220.864C161.537 220.864 160.985 221 160.601 221.272C160.217 221.544 160.025 221.904 160.025 222.352C160.025 222.704 160.153 223 160.409 223.24C160.665 223.48 160.977 223.672 161.345 223.816C161.713 223.944 162.257 224.112 162.977 224.32C163.937 224.576 164.721 224.84 165.329 225.112C165.953 225.368 166.489 225.752 166.937 226.264C167.385 226.776 167.617 227.456 167.633 228.304C167.633 229.056 167.425 229.728 167.009 230.32C166.593 230.912 166.001 231.376 165.233 231.712C164.481 232.048 163.593 232.216 162.569 232.216Z" fill="#2976DF"/>
<defs>
<filter id="filter0_d_155_2182" x="0" y="0" width="206" height="208" filterUnits="userSpaceOnUse" color-interpolation-filters="sRGB">
<feFlood flood-opacity="0" result="BackgroundImageFix"/>
<feColorMatrix in="SourceAlpha" type="matrix" values="0 0 0 0 0 0 0 0 0 0 0 0 0 0 0 0 0 0 127 0" result="hardAlpha"/>
<feOffset dy="10"/>
<feGaussianBlur stdDeviation="15"/>
<feComposite in2="hardAlpha" operator="out"/>
<feColorMatrix type="matrix" values="0 0 0 0 0.32549 0 0 0 0 0.635294 0 0 0 0 0.752941 0 0 0 0.2 0"/>
<feBlend mode="normal" in2="BackgroundImageFix" result="effect1_dropShadow_155_2182"/>
<feBlend mode="normal" in="SourceGraphic" in2="effect1_dropShadow_155_2182" result="shape"/>
</filter>
</defs>
</svg>
