<svg width="22" height="21" viewBox="0 0 22 21" fill="none" xmlns="http://www.w3.org/2000/svg">
<ellipse cx="11.0242" cy="10.5" rx="10.7317" ry="10.5" fill="#C13584"/>
<path d="M11.0244 5.33516C12.7437 5.33516 12.9473 5.34158 13.6263 5.37189C14.2541 5.3999 14.595 5.50253 14.8219 5.5888C15.1225 5.70309 15.337 5.8396 15.5623 6.06004C15.7876 6.2805 15.9272 6.49036 16.044 6.78442C16.1322 7.00641 16.2371 7.33998 16.2657 7.9542C16.2967 8.61849 16.3032 8.81775 16.3032 10.4999C16.3032 12.182 16.2967 12.3812 16.2657 13.0455C16.2371 13.6598 16.1322 13.9933 16.044 14.2153C15.9272 14.5094 15.7876 14.7192 15.5623 14.9397C15.337 15.1601 15.1225 15.2966 14.8219 15.4109C14.595 15.4972 14.2541 15.5998 13.6263 15.6278C12.9474 15.6582 12.7438 15.6646 11.0244 15.6646C9.30497 15.6646 9.10136 15.6582 8.42246 15.6278C7.79467 15.5998 7.45372 15.4972 7.22683 15.4109C6.92627 15.2966 6.71178 15.1601 6.48647 14.9397C6.26116 14.7192 6.1216 14.5094 6.00479 14.2153C5.91661 13.9933 5.81171 13.6598 5.78309 13.0455C5.75211 12.3812 5.74554 12.182 5.74554 10.4999C5.74554 8.81775 5.75211 8.61849 5.78309 7.9542C5.81171 7.33998 5.91661 7.00641 6.00479 6.78442C6.1216 6.49036 6.26113 6.2805 6.48647 6.06006C6.71178 5.8396 6.92627 5.70309 7.22683 5.5888C7.45372 5.50253 7.79467 5.3999 8.42246 5.37189C9.10143 5.34158 9.30509 5.33516 11.0244 5.33516ZM11.0244 4.20006C9.27565 4.20006 9.05637 4.20731 8.36958 4.23797C7.68422 4.26855 7.21615 4.37506 6.80658 4.53078C6.38315 4.69177 6.02407 4.90718 5.66608 5.25741C5.30811 5.60766 5.08794 5.95898 4.92341 6.37325C4.76422 6.77397 4.65537 7.23192 4.62411 7.90246C4.59277 8.57441 4.58536 8.78894 4.58536 10.4999C4.58536 12.2108 4.59277 12.4253 4.62411 13.0973C4.65537 13.7678 4.76422 14.2258 4.92341 14.6265C5.08794 15.0407 5.30811 15.3921 5.66608 15.7423C6.02407 16.0925 6.38315 16.308 6.80658 16.4689C7.21615 16.6247 7.68422 16.7312 8.36958 16.7618C9.05637 16.7924 9.27565 16.7997 11.0244 16.7997C12.7731 16.7997 12.9924 16.7924 13.6792 16.7618C14.3645 16.7312 14.8326 16.6247 15.2422 16.4689C15.6656 16.308 16.0247 16.0925 16.3827 15.7423C16.7407 15.3921 16.9608 15.0407 17.1254 14.6265C17.2845 14.2258 17.3934 13.7678 17.4247 13.0973C17.456 12.4253 17.4634 12.2108 17.4634 10.4999C17.4634 8.78894 17.456 8.57441 17.4247 7.90246C17.3934 7.23192 17.2845 6.77397 17.1254 6.37325C16.9608 5.95898 16.7407 5.60766 16.3827 5.25741C16.0247 4.90718 15.6656 4.69177 15.2422 4.53078C14.8326 4.37506 14.3645 4.26855 13.6792 4.23797C12.9924 4.20731 12.7731 4.20006 11.0244 4.20006Z" fill="white"/>
<path d="M11.0273 7.26767C9.2011 7.26767 7.72073 8.71605 7.72073 10.5027C7.72073 12.2894 9.2011 13.7378 11.0273 13.7378C12.8534 13.7378 14.3338 12.2894 14.3338 10.5027C14.3338 8.71605 12.8534 7.26767 11.0273 7.26767ZM11.0273 12.6027C9.84186 12.6027 8.88092 11.6625 8.88092 10.5027C8.88092 9.34296 9.84186 8.40278 11.0273 8.40278C12.2127 8.40278 13.1736 9.34296 13.1736 10.5027C13.1736 11.6625 12.2127 12.6027 11.0273 12.6027Z" fill="white"/>
<path d="M15.237 7.04522C15.237 7.41142 14.891 7.7083 14.4643 7.7083C14.0375 7.7083 13.6916 7.41142 13.6916 7.04522C13.6916 6.67901 14.0375 6.38213 14.4643 6.38213C14.891 6.38213 15.237 6.67901 15.237 7.04522Z" fill="white"/>
</svg>
