<svg width="23" height="22" viewBox="0 0 23 22" fill="none" xmlns="http://www.w3.org/2000/svg">
<rect x="0.585327" width="21.4634" height="21.4634" rx="10.7317" fill="#1D9BF0"/>
<path d="M9.35313 16.3927C14.1126 16.3927 16.7151 12.4488 16.7151 9.03074C16.7151 8.91805 16.7151 8.80537 16.7097 8.69805C17.2141 8.33317 17.6541 7.87708 18.0029 7.35659C17.5414 7.56049 17.0424 7.7 16.5165 7.76439C17.0531 7.44244 17.4609 6.93805 17.6541 6.33171C17.1551 6.62683 16.6024 6.84147 16.0122 6.95952C15.54 6.45513 14.8692 6.14391 14.1234 6.14391C12.6961 6.14391 11.537 7.30293 11.537 8.73025C11.537 8.93415 11.5585 9.13269 11.6068 9.32049C9.45508 9.21317 7.55021 8.18293 6.27313 6.6161C6.05313 6.99708 5.92435 7.44244 5.92435 7.91464C5.92435 8.81074 6.38045 9.60488 7.07801 10.0663C6.65411 10.0556 6.25704 9.93756 5.90825 9.74439C5.90825 9.75513 5.90825 9.76586 5.90825 9.77659C5.90825 11.0322 6.79899 12.0732 7.98484 12.3146C7.77021 12.3737 7.53947 12.4059 7.30338 12.4059C7.13704 12.4059 6.97606 12.3898 6.81508 12.3576C7.1424 13.3878 8.09752 14.1337 9.22972 14.1551C8.34435 14.8473 7.22825 15.2605 6.01557 15.2605C5.8063 15.2605 5.6024 15.2498 5.3985 15.2229C6.53069 15.9634 7.89362 16.3927 9.35313 16.3927Z" fill="white"/>
</svg>
