<svg width="17" height="18" viewBox="0 0 17 18" fill="none" xmlns="http://www.w3.org/2000/svg">
<path fill-rule="evenodd" clip-rule="evenodd" d="M2.00325 0.573968C2.18915 0.377409 2.41239 0.22493 2.65815 0.126636C2.90392 0.0283423 3.1666 -0.013522 3.4288 0.00381754C3.691 0.0211571 3.94673 0.0973045 4.17904 0.227214C4.41134 0.357123 4.61492 0.537827 4.77629 0.757351L6.68342 3.35172C7.03297 3.82762 7.15621 4.44752 7.01809 5.03255L6.43692 7.49641C6.40688 7.62402 6.4085 7.7577 6.44164 7.88445C6.47477 8.01121 6.5383 8.12673 6.62604 8.21982L9.23652 10.9841C9.32454 11.0772 9.43382 11.1446 9.55373 11.1796C9.67363 11.2147 9.80008 11.2164 9.92075 11.1843L12.2465 10.5689C12.5191 10.4967 12.8037 10.4911 13.0787 10.5525C13.3537 10.6139 13.6119 10.7407 13.8338 10.9233L16.2839 12.9417C17.1647 13.6673 17.2454 15.0455 16.457 15.8792L15.3585 17.0425C14.5722 17.875 13.3971 18.2407 12.3017 17.8323C9.49809 16.7877 6.95251 15.0881 4.85385 12.8595C2.74941 10.6376 1.14436 7.94245 0.157745 4.97404C-0.226868 3.81524 0.118434 2.56981 0.90466 1.73727L2.00325 0.573968Z" fill="#149BFC"/>
</svg>
