<svg width="23" height="22" viewBox="0 0 23 22" fill="none" xmlns="http://www.w3.org/2000/svg">
<rect x="0.87796" width="21.4634" height="21.4634" rx="10.7317" fill="#FF0000"/>
<path d="M18.9601 7.0456C18.7833 6.38886 18.2654 5.87104 17.6087 5.69423C16.4089 5.36586 11.6096 5.36586 11.6096 5.36586C11.6096 5.36586 6.81037 5.36586 5.61056 5.6816C4.96645 5.85842 4.43601 6.38886 4.25919 7.0456C3.94345 8.24541 3.94345 10.7334 3.94345 10.7334C3.94345 10.7334 3.94345 13.2341 4.25919 14.4213C4.43601 15.078 4.95382 15.5959 5.61056 15.7727C6.823 16.101 11.6096 16.101 11.6096 16.101C11.6096 16.101 16.4089 16.101 17.6087 15.7853C18.2654 15.6085 18.7833 15.0907 18.9601 14.4339C19.2758 13.2341 19.2758 10.7461 19.2758 10.7461C19.2758 10.7461 19.2884 8.24541 18.9601 7.0456Z" fill="white"/>
<path d="M10.0815 13.032L14.0724 10.7334L10.0815 8.43484V13.032Z" fill="#FF0000"/>
</svg>
