<svg width="520" height="396" viewBox="0 0 520 396" fill="none" xmlns="http://www.w3.org/2000/svg">
<g filter="url(#filter0_d_155_1535)">
<mask id="mask0_155_1535" style="mask-type:luminance" maskUnits="userSpaceOnUse" x="-1" y="0" width="521" height="391">
<rect x="-0.00012207" y="0.060791" width="520" height="390" fill="white"/>
</mask>
<g mask="url(#mask0_155_1535)">
<circle cx="333.794" cy="83.5792" r="45.4284" fill="#6F4EB9"/>
<circle cx="333.794" cy="83.5792" r="42.765" fill="#9A7ED9"/>
<circle cx="333.794" cy="83.5792" r="37.9873" fill="#2976DF"/>
<mask id="mask1_155_1535" style="mask-type:luminance" maskUnits="userSpaceOnUse" x="295" y="45" width="77" height="77">
<circle cx="333.794" cy="83.5792" r="37.9873" fill="white"/>
</mask>
<g mask="url(#mask1_155_1535)">
<circle cx="329.016" cy="81.1943" r="37.9873" fill="#589BF7"/>
</g>
<path d="M319.691 82.2424L319.92 80.7979L334.193 82.3449L333.743 85.185L319.691 82.2424Z" fill="#F0F3FC"/>
<path d="M351.662 70.3199L352.522 71.5032L334.177 85.7017L332.487 83.3751L351.662 70.3199Z" fill="#F0F3FC"/>
<rect x="332.577" y="50.505" width="2.43316" height="5.08686" fill="#F0F3FC"/>
<rect x="332.577" y="111.567" width="2.43316" height="5.08686" fill="#F0F3FC"/>
<rect x="361.781" y="82.3626" width="5.08686" height="2.43316" fill="#F0F3FC"/>
<rect x="300.719" y="82.3626" width="5.08686" height="2.43316" fill="#F0F3FC"/>
<circle cx="333.794" cy="83.5792" r="5.56845" fill="#D6DCF2"/>
<mask id="mask2_155_1535" style="mask-type:luminance" maskUnits="userSpaceOnUse" x="328" y="78" width="12" height="12">
<circle cx="333.794" cy="83.5792" r="5.56845" fill="white"/>
</mask>
<g mask="url(#mask2_155_1535)">
<circle cx="331.575" cy="84.5236" r="5.56845" fill="#F0F3FC"/>
</g>
<path d="M317.654 62.154C316.929 63.6776 316.044 65.1201 315.014 66.4572C314.878 66.6027 314.878 66.8292 315.014 66.9746C315.14 67.1006 315.41 67.1319 315.531 66.9746C316.605 65.5926 317.528 64.1004 318.286 62.5233C318.382 62.3481 318.325 62.1281 318.155 62.0227C317.98 61.9226 317.757 61.981 317.654 62.154H317.654Z" fill="#2976DF"/>
<path d="M358.965 95.3186C359.025 97.413 358.43 99.4741 357.263 101.214C356.938 101.699 356.568 102.153 356.16 102.571C355.832 102.909 356.349 103.427 356.678 103.089C358.69 101.011 359.778 98.2095 359.697 95.3185C359.682 94.8488 358.95 94.8467 358.965 95.3185L358.965 95.3186Z" fill="#2976DF"/>
<path d="M284.964 113.147C293.108 108.066 297.786 99.8454 299.803 98.2792C301.819 96.713 315.637 97.7189 316.717 96.5449C317.797 95.3708 315.68 100.578 310.598 101.466C305.517 102.355 304.487 102.925 304.487 102.925C304.487 102.925 299.874 115.086 297.256 117.303C294.638 119.519 279.183 129.797 279.183 129.797L284.964 113.147Z" fill="#FF9763"/>
<path d="M289.506 109.118C289.506 109.118 298.291 120.503 296.45 126.903L241.793 150.847L200.891 96.8753C200.891 96.8753 219.609 95.5177 224.462 95.0113C229.679 94.4669 246.448 123.788 252.301 123.549C255.224 123.429 289.506 109.118 289.506 109.118Z" fill="#FE7578"/>
<mask id="mask3_155_1535" style="mask-type:luminance" maskUnits="userSpaceOnUse" x="200" y="95" width="97" height="56">
<path fill-rule="evenodd" clip-rule="evenodd" d="M289.506 109.118C289.506 109.118 298.291 120.503 296.45 126.903L241.793 150.847L200.891 96.8753C200.891 96.8753 219.609 95.5177 224.462 95.0113C229.679 94.4669 246.448 123.788 252.301 123.549C255.224 123.429 289.506 109.118 289.506 109.118Z" fill="white"/>
</mask>
<g mask="url(#mask3_155_1535)">
<path d="M230.101 114.408C246.937 142.496 258.103 157.719 276.195 136.467C283.368 128.043 258.103 157.719 258.103 157.719L218.687 152.823V144.139" fill="#BA393C"/>
<circle cx="252.635" cy="122.925" r="1.32252" fill="#190000"/>
<circle cx="289.445" cy="125.583" r="1.32252" fill="#BA393C"/>
</g>
<path d="M356.236 291.144L369.384 286.799L356.759 260.459L340.757 265.747L356.236 291.144Z" fill="#FF9763"/>
<mask id="mask4_155_1535" style="mask-type:luminance" maskUnits="userSpaceOnUse" x="340" y="260" width="30" height="32">
<path fill-rule="evenodd" clip-rule="evenodd" d="M356.236 291.144L369.384 286.799L356.759 260.459L340.757 265.747L356.236 291.144Z" fill="white"/>
</mask>
<g mask="url(#mask4_155_1535)">
<path d="M333.622 286.659C362.371 277.354 361.694 270.755 361.694 270.755L350.526 269.544L340.757 277.188" fill="#E84B23"/>
</g>
<path d="M405.543 285.887C403.056 281.31 399.072 280.741 394.133 281.371C383.228 282.76 370.259 283.428 366.701 279.163L350.526 283.73L358.072 297.153C359.104 298.989 361.492 300.012 363.33 299.405L405.543 285.887Z" fill="#3A3530"/>
<path d="M335.536 279.424C352.473 277.907 363.744 269.385 363.744 269.385L333.075 201.968C331.299 197.952 327.942 194.719 323.691 192.93L237.13 161.99L239.085 168.183L242.959 191.127L306.258 217.083L335.536 279.424Z" fill="#589BF7"/>
<mask id="mask5_155_1535" style="mask-type:luminance" maskUnits="userSpaceOnUse" x="237" y="161" width="127" height="119">
<path fill-rule="evenodd" clip-rule="evenodd" d="M335.536 279.424C352.473 277.907 363.744 269.385 363.744 269.385L333.075 201.968C331.299 197.952 327.942 194.719 323.691 192.93L237.13 161.99L239.085 168.183L242.959 191.127L306.258 217.083L335.536 279.424Z" fill="white"/>
</mask>
<g mask="url(#mask5_155_1535)">
<path d="M324.773 270.464C347.776 275.033 362.124 256.037 362.124 256.037" stroke="#2976DF" stroke-width="1.28102" stroke-linecap="round" stroke-linejoin="round"/>
<path d="M346.494 265.014L318.668 208.291C317.803 206.528 316.282 205.174 314.431 204.519L245.302 180.053" stroke="#2976DF" stroke-width="1.28102" stroke-linecap="round" stroke-linejoin="round"/>
<path d="M312.651 247.653C325.761 222.751 323.691 192.93 284.618 193.968C231.871 195.369 270.173 250.622 270.173 250.622H300.437" fill="#2976DF"/>
</g>
<path d="M279.039 318.491L291.068 325.058L297.208 292.592L282.751 283.502L279.039 318.491Z" fill="#FF9763"/>
<mask id="mask6_155_1535" style="mask-type:luminance" maskUnits="userSpaceOnUse" x="279" y="283" width="19" height="43">
<path fill-rule="evenodd" clip-rule="evenodd" d="M279.039 318.491L291.068 325.058L297.208 292.592L282.751 283.502L279.039 318.491Z" fill="white"/>
</mask>
<g mask="url(#mask6_155_1535)">
<path d="M272.808 302.196C290.33 308.759 295.603 305.42 295.603 305.42L285.907 297.875L273.063 298.789" fill="#E84B23"/>
</g>
<path d="M312.572 351.971C314.647 347.3 312.556 343.899 308.897 340.487C300.817 332.956 291.995 323.406 293.135 318.1L279.145 308.443L276.07 325.059C275.26 326.959 275.967 329.409 277.627 330.453L312.572 351.971Z" fill="#3A3530"/>
<path d="M273.299 296.51C273.299 296.51 291.535 309.445 300.273 304.145L312.509 213.396C313.395 207.172 310.069 200.915 304.157 197.68L237.13 161.99L205.986 168.196L204.008 175.875C200.785 188.389 208.603 201.521 221.839 205.824L281.194 222.545L273.299 296.51Z" fill="#589BF7"/>
<mask id="mask7_155_1535" style="mask-type:luminance" maskUnits="userSpaceOnUse" x="203" y="161" width="110" height="145">
<path fill-rule="evenodd" clip-rule="evenodd" d="M273.299 296.51C273.299 296.51 291.535 309.445 300.273 304.145L312.509 213.396C313.395 207.172 310.069 200.915 304.157 197.68L237.13 161.99L205.986 168.196L204.008 175.875C200.785 188.389 208.603 201.521 221.839 205.824L281.194 222.545L273.299 296.51Z" fill="white"/>
</mask>
<g mask="url(#mask7_155_1535)">
<path d="M256.93 166.771C201.684 183.911 230.25 206.872 256.93 217.23C283.61 227.588 196.089 228.585 196.089 228.585L186.392 196.93L216.427 175.744L240.742 156.314" fill="#2976DF"/>
<ellipse cx="314.112" cy="209.95" rx="10.5801" ry="3.12594" fill="#FF9763"/>
<path d="M274.314 272.388C255.078 287.891 306.899 294.672 306.899 294.672" stroke="#2976DF" stroke-width="1.28102" stroke-linecap="round" stroke-linejoin="round"/>
<path d="M235.563 181.495C235.724 192.877 226.26 194.667 226.26 194.667L235.563 181.495Z" fill="#589BF7"/>
<path d="M237.13 189.13L286.547 207.742C292.547 210.001 296.299 215.99 295.715 222.374L289.586 289.371" stroke="#2976DF" stroke-width="1.28102" stroke-linecap="round" stroke-linejoin="round"/>
</g>
<path d="M220.285 96.1171C214.5 94.4778 191.483 95.5048 188.724 103.037C187.59 106.134 179.488 129.377 194.624 192.947C204.272 199.087 245.792 162.338 245.792 162.338C245.909 162.284 238.045 135.287 230.625 115.773" fill="#FE7578"/>
<mask id="mask8_155_1535" style="mask-type:luminance" maskUnits="userSpaceOnUse" x="185" y="95" width="61" height="99">
<path fill-rule="evenodd" clip-rule="evenodd" d="M220.285 96.1171C214.5 94.4778 191.483 95.5048 188.724 103.037C187.59 106.134 179.488 129.377 194.624 192.947C204.272 199.087 245.792 162.338 245.792 162.338C245.909 162.284 238.045 135.287 230.625 115.773" fill="white"/>
</mask>
<g mask="url(#mask8_155_1535)">
<path d="M245.792 162.338C185.914 159.315 186.834 210.597 218.664 189.72C250.495 168.843 212.339 201.261 211.004 202.053C209.669 202.845 181.163 207.596 181.163 207.596L168.17 172.352C168.17 172.352 187.498 147.51 190.269 149.641C193.041 151.773 238.567 152.223 238.567 152.223" fill="#BA393C"/>
<path d="M239.411 174.763C242.617 162.099 218.086 103.028 218.086 103.028L239.411 174.763Z" fill="#FE7578"/>
<path d="M182.823 181.015C190.518 197.686 243.979 157.811 243.979 157.811" stroke="#BA393C" stroke-width="1.28102" stroke-linecap="round" stroke-linejoin="round"/>
</g>
<path d="M207.52 125.583C205.378 140.09 224.021 141.086 233.786 141.949C243.55 142.813 221.113 142.702 230.658 143.023C240.202 143.343 215.831 149.641 215.831 149.641L191.483 147.54L194.146 128.419L207.52 125.583Z" fill="#BA393C"/>
<path d="M246.903 144.742C256.489 144.237 264.562 139.308 267.085 138.914C269.607 138.519 281.211 146.087 282.725 145.583C284.239 145.078 279.866 148.61 274.989 146.928C270.112 145.246 268.934 145.246 268.934 145.246C268.934 145.246 259.012 153.655 255.649 154.328C252.285 155 233.786 156.514 233.786 156.514L246.903 144.742Z" fill="#FF9763"/>
<mask id="mask9_155_1535" style="mask-type:luminance" maskUnits="userSpaceOnUse" x="233" y="138" width="51" height="19">
<path fill-rule="evenodd" clip-rule="evenodd" d="M246.903 144.742C256.489 144.237 264.562 139.308 267.085 138.914C269.607 138.519 281.211 146.087 282.725 145.583C284.239 145.078 279.866 148.61 274.989 146.928C270.112 145.246 268.934 145.246 268.934 145.246C268.934 145.246 259.012 153.655 255.649 154.328C252.285 155 233.786 156.514 233.786 156.514L246.903 144.742Z" fill="white"/>
</mask>
<g mask="url(#mask9_155_1535)">
<path d="M255.224 159.028C256.738 147.486 253.66 141.821 253.66 141.821L246.999 155.301L253.838 159.75" fill="#E84B23"/>
</g>
<path d="M207.52 125.583C205.533 133.175 197.306 141.339 197.306 141.339L253.66 141.821C253.66 141.821 255.005 157.629 250.297 162.338H180.123C174.89 162.338 170.266 158.934 168.71 153.938C167.848 151.168 168.023 148.18 169.201 145.529L188.724 103.037" fill="#FE7578"/>
<mask id="mask10_155_1535" style="mask-type:luminance" maskUnits="userSpaceOnUse" x="168" y="103" width="86" height="60">
<path fill-rule="evenodd" clip-rule="evenodd" d="M207.52 125.583C205.533 133.175 197.306 141.339 197.306 141.339L253.66 141.821C253.66 141.821 255.005 157.629 250.297 162.338H180.123C174.89 162.338 170.266 158.934 168.71 153.938C167.848 151.168 168.023 148.18 169.201 145.529L188.724 103.037" fill="white"/>
</mask>
<g mask="url(#mask10_155_1535)">
<ellipse cx="167.192" cy="162.127" rx="18.3537" ry="14.0788" fill="#BA393C"/>
<ellipse opacity="0.4" cx="169.209" cy="160.11" rx="18.3537" ry="14.0788" stroke="#EA71A2" stroke-width="0.854022" stroke-linecap="round" stroke-linejoin="round" stroke-dasharray="1.71"/>
</g>
<path d="M261.07 155.16L255.224 155.89V154.155L293.404 136.709V139.084L261.07 155.16Z" fill="#FFC562"/>
<path d="M293.404 84.2796V139.084H335.42V97.4665C335.42 95.0367 333.892 92.8695 331.603 92.0535L298.91 80.3975C297.647 79.9476 296.245 80.1392 295.15 80.9113C294.055 81.6835 293.404 82.9397 293.404 84.2796H293.404Z" fill="#FFC562"/>
<mask id="mask11_155_1535" style="mask-type:luminance" maskUnits="userSpaceOnUse" x="293" y="80" width="43" height="60">
<path fill-rule="evenodd" clip-rule="evenodd" d="M293.404 84.2796V139.084H335.42V97.4665C335.42 95.0367 333.892 92.8695 331.603 92.0535L298.91 80.3975C297.648 79.9476 296.245 80.1392 295.15 80.9113C294.055 81.6835 293.404 82.9397 293.404 84.2796H293.404Z" fill="white"/>
</mask>
<g mask="url(#mask11_155_1535)">
<path d="M326.27 75.7208C367.949 119.393 307.995 142.477 307.995 142.477L351.598 153.698L356.728 111.977L338.774 89.3741" fill="#D89D35"/>
<circle cx="307.039" cy="110.961" r="8.28378" fill="#935738"/>
<rect x="314.687" y="101.555" width="12.0499" height="12.0499" transform="rotate(-23.7494 314.687 101.555)" fill="#FE7578"/>
<rect x="319.72" y="115.036" width="5.41804" height="5.41804" transform="rotate(33.0926 319.72 115.036)" fill="#F0F3FC"/>
</g>
<path d="M255.224 155.89L293.404 139.084H335.42L296.327 156.804L255.224 155.89Z" fill="#D89D35"/>
<path d="M218.086 103.028L216.143 86.8891L200.891 75.7208V96.8753" fill="#FF9763"/>
<mask id="mask12_155_1535" style="mask-type:luminance" maskUnits="userSpaceOnUse" x="200" y="75" width="19" height="29">
<path fill-rule="evenodd" clip-rule="evenodd" d="M218.086 103.028L216.143 86.8891L200.891 75.7208V96.8753" fill="white"/>
</mask>
<g mask="url(#mask12_155_1535)">
<path d="M220.182 103.578C215.67 96.6615 204.747 81.4166 204.747 81.4166L218.841 88.9347C218.841 88.9347 222.108 106.529 220.182 103.578Z" fill="#E84B23"/>
</g>
<path d="M200.021 77.9648L198.135 66.6952L223.509 63.4091C223.509 63.4091 226.253 81.0419 221.407 88.8453C218.47 93.5764 211.56 90.5266 206.575 87.3919" fill="#FF9763"/>
<mask id="mask13_155_1535" style="mask-type:luminance" maskUnits="userSpaceOnUse" x="198" y="63" width="27" height="29">
<path fill-rule="evenodd" clip-rule="evenodd" d="M200.021 77.9648L198.135 66.6952L223.509 63.4091C223.509 63.4091 226.253 81.0419 221.407 88.8453C218.47 93.5764 211.56 90.5266 206.575 87.3919" fill="white"/>
</mask>
<g mask="url(#mask13_155_1535)">
<ellipse opacity="0.27" cx="226.912" cy="80.6452" rx="2.87306" ry="3.87566" transform="rotate(-68.8498 226.912 80.6452)" fill="#E84B23"/>
<ellipse opacity="0.27" cx="211.897" cy="78.788" rx="2.18265" ry="3.59317" transform="rotate(-85.8807 211.897 78.788)" fill="#E84B23"/>
<ellipse opacity="0.27" cx="225.904" cy="79.8099" rx="2.18265" ry="3.59317" transform="rotate(-85.8807 225.904 79.8099)" fill="#E84B23"/>
<path d="M221.667 76.5168C221.398 76.5272 221.135 76.4301 220.937 76.2469C220.74 76.0637 220.623 75.8095 220.612 75.5401L220.546 73.8246C220.536 73.5552 220.633 73.2927 220.816 73.0949C220.999 72.8971 221.254 72.7801 221.523 72.7698C221.792 72.7594 222.055 72.8565 222.253 73.0397C222.451 73.2228 222.567 73.4771 222.578 73.7465L222.644 75.462C222.665 76.023 222.228 76.4952 221.667 76.5168L221.667 76.5168Z" fill="#190000"/>
<path d="M215.048 76.496C215.687 76.5378 216.232 76.1078 216.264 75.5356L216.364 73.7858C216.396 73.2136 215.904 72.7159 215.265 72.6741C214.626 72.6323 214.082 73.0623 214.049 73.6345L213.95 75.3843C213.918 75.9565 214.409 76.4542 215.048 76.496Z" fill="#190000"/>
<path d="M221.684 70.3658C223.781 70.8908 223.253 72.0426 221.921 71.7999C220.59 71.5573 220.315 70.0229 221.684 70.3658Z" fill="#190000"/>
<path d="M215.478 70.1556C213.082 70.6179 213.493 71.7127 215.014 71.5118C216.535 71.3108 217.044 69.8535 215.478 70.1556Z" fill="#190000"/>
<path d="M217.365 76.8407C217.292 77.5707 217.999 77.3482 218.835 77.4308C219.672 77.5134 220.321 77.8697 220.393 77.1397C220.465 76.4098 219.846 75.7511 219.009 75.6685C218.173 75.586 217.437 76.1108 217.365 76.8407Z" fill="#E84B23"/>
<path d="M221.469 80.3983C220.455 85.494 215.665 83.3024 215.616 80.1279C215.616 79.9635 215.719 79.8168 215.874 79.7607C216.525 79.5154 218.416 79.0052 221.204 79.9457C221.393 80.0096 221.506 80.2026 221.469 80.3983Z" fill="#C1525F"/>
<mask id="mask14_155_1535" style="mask-type:luminance" maskUnits="userSpaceOnUse" x="215" y="79" width="7" height="5">
<path fill-rule="evenodd" clip-rule="evenodd" d="M221.469 80.3983C220.455 85.494 215.665 83.3024 215.616 80.1279C215.616 79.9635 215.719 79.8168 215.874 79.7607C216.525 79.5154 218.416 79.0052 221.204 79.9457C221.393 80.0096 221.506 80.2026 221.469 80.3983Z" fill="white"/>
</mask>
<g mask="url(#mask14_155_1535)">
<ellipse cx="217.782" cy="83.1712" rx="2.3247" ry="2.60459" transform="rotate(-70.1528 217.782 83.1712)" fill="#993443"/>
<path d="M220.582 79.5645C220.57 79.9022 220.522 80.3599 220.431 80.4403C219.87 80.936 217.246 80.6183 216.896 80.3123C216.799 80.2271 216.822 79.1379 216.822 79.1379L220.188 79.3675" fill="#F0F3FC"/>
</g>
</g>
<path d="M202.321 76.7674C216.961 78.4236 204.064 62.8301 223.509 64.942C248.126 67.6154 242.101 54.8256 235.682 55.4344C223.844 56.557 241.488 52.3599 222.203 52.0481C213.609 51.9091 187.201 56.4572 198.135 75.7208C202.286 83.0331 201.909 80.1452 202.321 76.7674Z" fill="#3A3530"/>
<path d="M207.335 76.6577C207.055 75.9303 206.653 75.2557 206.148 74.6624C204.095 72.2294 200.802 71.4608 198.792 72.9456C196.782 74.4305 196.816 77.6065 198.868 80.0395C200.179 81.5925 201.994 82.4674 203.659 82.5109" fill="#FF9763"/>
<path d="M198.532 97.1851C198.532 97.1851 199.465 93.6184 200.891 92.9273L218.086 103.028L216.641 105.98L198.532 97.1851Z" fill="#F0F3FC"/>
<path d="M220.285 105.163L218.086 103.028L217.293 92.3326C219.489 92.6209 221.096 95.0038 221.096 95.0038L220.285 105.163Z" fill="#F0F3FC"/>
<circle cx="245.302" cy="157.811" r="1.32252" fill="#BA393C"/>
<circle cx="237.628" cy="157.811" r="1.32252" fill="#BA393C"/>
<path d="M201.933 75.0153C201.446 75.2317 201.104 75.7004 200.936 76.1937C200.766 76.708 200.815 77.2698 201.072 77.7465C201.255 78.0529 201.65 78.1564 201.959 77.9791C202.262 77.7937 202.365 77.4024 202.192 77.0923C202.173 77.0578 202.156 77.0228 202.14 76.9868L202.206 77.1417C202.164 77.0412 202.135 76.9359 202.12 76.8283L202.143 77.0006C202.129 76.8847 202.129 76.7674 202.143 76.6515L202.12 76.8238C202.138 76.6917 202.173 76.5626 202.224 76.4395L202.158 76.5943C202.208 76.4795 202.271 76.3712 202.348 76.2721L202.246 76.4033C202.314 76.3182 202.391 76.2415 202.477 76.1748L202.346 76.2762C202.421 76.2202 202.502 76.1727 202.588 76.1347C202.733 76.0493 202.84 75.9103 202.885 75.7473C202.93 75.5787 202.907 75.3993 202.82 75.2479C202.734 75.1023 202.595 74.9955 202.433 74.95C202.264 74.9135 202.087 74.9366 201.933 75.0153L201.933 75.0153Z" fill="#190000"/>
<path d="M204.687 65.4526L205.168 65.9335C205.425 66.1769 205.828 66.1769 206.085 65.9335L206.186 65.8023C206.244 65.7031 206.275 65.5902 206.275 65.4752L206.252 65.3029C206.222 65.1947 206.164 65.0961 206.085 65.0169L205.604 64.5359C205.347 64.2925 204.944 64.2925 204.687 64.5359L204.586 64.6671C204.528 64.7663 204.497 64.8793 204.497 64.9943L204.521 65.1666C204.55 65.2748 204.608 65.3733 204.687 65.4526Z" fill="#190000"/>
<path d="M221.684 58.8891C224.117 59.6103 226.673 59.8199 229.19 59.5049C229.525 59.4623 229.856 59.2374 229.839 58.8567C229.825 58.5423 229.551 58.1627 229.19 58.2085C227.974 58.3639 226.745 58.3938 225.523 58.2977C225.218 58.2736 224.913 58.2416 224.609 58.2018C224.749 58.2202 224.502 58.1861 224.478 58.1825C224.418 58.1735 224.357 58.1642 224.297 58.1546C224.135 58.1289 223.975 58.101 223.814 58.0709C223.212 57.9575 222.616 57.8134 222.029 57.639C221.684 57.5456 221.329 57.7483 221.234 58.0925C221.139 58.4366 221.34 58.7928 221.684 58.8891H221.684Z" fill="#190000"/>
<path d="M194.036 141.716C195.14 142.156 196.35 142.257 197.512 142.004C197.855 141.906 198.057 141.551 197.964 141.206C197.862 140.867 197.511 140.667 197.167 140.754C197.094 140.769 197.021 140.783 196.947 140.796C196.928 140.799 196.742 140.824 196.898 140.806C196.768 140.821 196.638 140.833 196.507 140.84C196.255 140.853 196.003 140.847 195.752 140.824C195.721 140.821 195.518 140.797 195.674 140.818C195.618 140.811 195.563 140.802 195.508 140.793C195.379 140.77 195.251 140.744 195.124 140.712C194.871 140.648 194.622 140.566 194.38 140.466C194.066 140.336 193.654 140.605 193.583 140.918C193.497 141.296 193.699 141.577 194.036 141.716Z" fill="#BA393C"/>
<path d="M251.814 123.945L252.479 126.126C252.54 126.35 252.716 126.523 252.941 126.581C253.165 126.64 253.403 126.574 253.566 126.409C253.728 126.244 253.79 126.005 253.729 125.782L253.064 123.6C252.967 123.257 252.611 123.055 252.267 123.15C251.923 123.245 251.72 123.6 251.814 123.945Z" fill="#BA393C"/>
<path d="M282.051 223.157C283.91 222.312 285.573 221.091 286.937 219.571C287.343 219.116 287.722 218.638 288.073 218.139C288.269 217.861 288.132 217.407 287.84 217.253C287.53 217.081 287.14 217.184 286.953 217.485C286.887 217.579 286.821 217.671 286.753 217.763C286.716 217.813 286.679 217.862 286.642 217.911C286.635 217.92 286.581 217.99 286.628 217.929C286.682 217.859 286.592 217.975 286.581 217.988C286.434 218.175 286.282 218.357 286.125 218.536C285.801 218.907 285.457 219.26 285.096 219.595C284.921 219.757 284.743 219.914 284.561 220.066C284.467 220.146 284.372 220.224 284.275 220.3C284.234 220.333 284.192 220.366 284.151 220.398C284.255 220.317 284.11 220.429 284.072 220.457C283.241 221.08 282.344 221.611 281.397 222.038C281.087 222.178 280.988 222.652 281.164 222.925C281.371 223.245 281.719 223.307 282.051 223.157H282.051Z" fill="#2976DF"/>
<path d="M369.384 280.974C371.181 258.682 380.755 274.489 371.399 281.614C371.399 281.614 382.482 276.957 383.685 277.678" stroke="#190000" stroke-width="1.28102" stroke-linecap="round" stroke-linejoin="round"/>
<path d="M293.287 324.419C295.083 302.126 304.657 317.934 295.301 325.058C295.301 325.058 306.384 320.401 307.587 321.122" stroke="#190000" stroke-width="1.28102" stroke-linecap="round" stroke-linejoin="round"/>
<path d="M204.114 83.5972L204.358 85.2798C204.403 85.443 204.51 85.582 204.656 85.6672C204.805 85.754 204.981 85.7783 205.148 85.7347C205.314 85.6911 205.456 85.5832 205.543 85.4347L205.608 85.2799C205.639 85.1671 205.639 85.0481 205.608 84.9353L205.364 83.2527C205.319 83.0895 205.212 82.9505 205.066 82.8653C204.918 82.7785 204.741 82.7542 204.574 82.7978C204.408 82.8414 204.266 82.9493 204.179 83.0978L204.114 83.2526C204.083 83.3654 204.083 83.4844 204.114 83.5972Z" fill="#E84B23"/>
<path d="M269.538 145.378V144.737C269.529 144.383 269.244 144.098 268.89 144.089L268.718 144.112C268.61 144.142 268.511 144.199 268.432 144.279C268.313 144.402 268.245 144.566 268.242 144.737V145.378C268.252 145.732 268.536 146.017 268.89 146.026L269.063 146.003C269.171 145.973 269.269 145.916 269.349 145.837C269.468 145.714 269.536 145.55 269.538 145.378Z" fill="#E84B23"/>
<path d="M269.658 177.384L269.163 178.096C269.117 178.168 269.09 178.251 269.086 178.337C269.055 178.594 269.176 178.846 269.396 178.982C269.547 179.07 269.727 179.094 269.895 179.048L270.05 178.982C270.146 178.926 270.226 178.846 270.283 178.75L270.777 178.038C270.824 177.966 270.85 177.883 270.854 177.797C270.885 177.54 270.765 177.288 270.545 177.151C270.394 177.064 270.214 177.04 270.045 177.086L269.89 177.151C269.794 177.207 269.714 177.288 269.658 177.384Z" fill="#2976DF"/>
<path fill-rule="evenodd" clip-rule="evenodd" d="M152.57 65.3491L174.833 133.828C174.866 133.93 174.835 134.042 174.753 134.112C174.672 134.181 174.557 134.195 174.461 134.146L83.7191 87.93C83.6236 87.8814 83.5668 87.78 83.5751 87.6731C83.5835 87.5663 83.6555 87.475 83.7574 87.4419L152.237 65.179C152.376 65.1338 152.525 65.2099 152.57 65.3491ZM117.812 90.2316L152.551 107.925C152.647 107.974 152.762 107.96 152.844 107.89C152.925 107.821 152.957 107.709 152.923 107.607L144.4 81.3905C144.355 81.2513 144.206 81.1752 144.066 81.2204L117.85 89.7435C117.748 89.7766 117.676 89.8679 117.668 89.9747C117.659 90.0816 117.716 90.183 117.812 90.2316Z" fill="#97CC64"/>
<mask id="mask15_155_1535" style="mask-type:luminance" maskUnits="userSpaceOnUse" x="83" y="65" width="92" height="70">
<path fill-rule="evenodd" clip-rule="evenodd" d="M174.833 133.828L152.57 65.3491C152.525 65.2099 152.376 65.1338 152.237 65.179L83.7574 87.4419C83.6555 87.475 83.5835 87.5663 83.5751 87.6731C83.5668 87.78 83.6236 87.8814 83.7191 87.93L174.461 134.146C174.557 134.195 174.672 134.181 174.753 134.112C174.835 134.042 174.866 133.93 174.833 133.828ZM152.551 107.925L117.812 90.2316C117.716 90.183 117.659 90.0816 117.668 89.9747C117.676 89.8679 117.748 89.7766 117.85 89.7435L144.066 81.2204C144.206 81.1752 144.355 81.2513 144.4 81.3905L152.923 107.607C152.957 107.709 152.925 107.821 152.844 107.89C152.762 107.96 152.647 107.974 152.551 107.925Z" fill="white"/>
</mask>
<g mask="url(#mask15_155_1535)">
<path d="M91.8124 80.8213C79.7691 94.6544 134.823 102.736 148.788 121.071C162.754 139.405 85.2 113.771 85.2 113.771L80.638 84.5435" fill="#75AA3C"/>
</g>
<path d="M152.866 72.1126L150.574 72.8578" stroke="#75AA3C" stroke-width="0.65"/>
<path d="M154.489 77.1042L152.197 77.8494" stroke="#75AA3C" stroke-width="0.65"/>
<path d="M159.357 92.0789L157.065 92.8242" stroke="#75AA3C" stroke-width="0.65"/>
<path d="M160.98 97.0705L158.688 97.8157" stroke="#75AA3C" stroke-width="0.65"/>
<path d="M156.112 82.0957L153.82 82.841" stroke="#75AA3C" stroke-width="0.65"/>
<path d="M157.735 87.0873L155.442 87.8326" stroke="#75AA3C" stroke-width="0.65"/>
<path d="M164.226 107.054L161.933 107.799" stroke="#75AA3C" stroke-width="0.65"/>
<path d="M167.471 117.037L165.179 117.782" stroke="#75AA3C" stroke-width="0.65"/>
<path d="M162.603 102.062L160.311 102.807" stroke="#75AA3C" stroke-width="0.65"/>
<path d="M165.849 112.045L163.556 112.79" stroke="#75AA3C" stroke-width="0.65"/>
<path d="M169.094 122.028L166.802 122.774" stroke="#75AA3C" stroke-width="0.65"/>
<path d="M170.717 127.02L168.425 127.765" stroke="#75AA3C" stroke-width="0.65"/>
<path d="M91.4397 86.6429L92.185 88.9353" stroke="#75AA3C" stroke-width="0.65"/>
<path d="M96.4313 85.0201L97.1766 87.3125" stroke="#75AA3C" stroke-width="0.65"/>
<path d="M111.406 80.1518L112.151 82.4441" stroke="#75AA3C" stroke-width="0.65"/>
<path d="M116.398 78.529L117.143 80.8213" stroke="#75AA3C" stroke-width="0.65"/>
<path d="M101.423 83.3973L102.168 85.6897" stroke="#75AA3C" stroke-width="0.65"/>
<path d="M106.414 81.7745L107.16 84.0669" stroke="#75AA3C" stroke-width="0.65"/>
<path d="M126.381 75.2834L127.126 77.5758" stroke="#75AA3C" stroke-width="0.65"/>
<path d="M136.364 72.0378L137.109 74.3302" stroke="#75AA3C" stroke-width="0.65"/>
<path d="M121.389 76.9062L122.134 79.1985" stroke="#75AA3C" stroke-width="0.65"/>
<path d="M131.372 73.6606L132.118 75.953" stroke="#75AA3C" stroke-width="0.65"/>
<path d="M141.356 70.4151L142.101 72.7074" stroke="#75AA3C" stroke-width="0.65"/>
<path d="M146.347 68.7923L147.092 71.0846" stroke="#75AA3C" stroke-width="0.65"/>
<path d="M123.644 98.687C123.96 100.757 125.919 102.395 127.996 102.416C128.252 102.416 128.459 102.209 128.459 101.953C128.459 101.698 128.252 101.49 127.996 101.49C127.873 101.489 127.751 101.481 127.629 101.47C127.483 101.457 127.714 101.487 127.57 101.462C127.51 101.451 127.45 101.441 127.39 101.429C127.181 101.383 126.976 101.321 126.776 101.244C126.725 101.223 126.719 101.222 126.759 101.239C126.731 101.226 126.703 101.214 126.676 101.201C126.62 101.176 126.565 101.149 126.511 101.121C126.415 101.071 126.322 101.019 126.23 100.962C126.139 100.906 126.05 100.846 125.963 100.783C125.938 100.765 125.913 100.746 125.889 100.728C125.922 100.753 125.917 100.749 125.874 100.715C125.833 100.68 125.791 100.646 125.751 100.611C125.427 100.339 125.156 100.012 124.951 99.643C124.894 99.5437 124.841 99.4419 124.793 99.3379C124.788 99.3273 124.737 99.2089 124.766 99.2804C124.743 99.2239 124.722 99.1668 124.701 99.1091C124.626 98.8919 124.571 98.6682 124.537 98.4409C124.499 98.1935 124.188 98.0569 123.967 98.1175C123.703 98.1902 123.606 98.4389 123.644 98.6869L123.644 98.687Z" fill="#75AA3C"/>
<path d="M201.262 207.557C201.032 201.208 199.464 194.979 196.661 189.277C195.596 187.112 194.358 185.037 192.958 183.072C182.512 168.384 163.78 160.821 145.248 165.485C126.716 170.15 113.796 185.679 111.548 203.563C111.245 205.956 111.136 208.37 111.223 210.78C111.453 217.13 113.021 223.359 115.824 229.061C126.819 228.707 141.586 226.789 159.54 222.27C177.494 217.751 191.41 212.451 201.262 207.557Z" fill="#9A7ED9"/>
<mask id="mask16_155_1535" style="mask-type:luminance" maskUnits="userSpaceOnUse" x="111" y="164" width="91" height="66">
<path fill-rule="evenodd" clip-rule="evenodd" d="M201.262 207.557C201.032 201.208 199.464 194.979 196.661 189.277C195.596 187.112 194.358 185.037 192.958 183.072C182.512 168.384 163.78 160.821 145.248 165.485C126.716 170.15 113.796 185.679 111.548 203.563C111.245 205.956 111.136 208.37 111.223 210.78C111.453 217.13 113.021 223.359 115.824 229.061C126.819 228.707 141.586 226.789 159.54 222.27C177.494 217.751 191.41 212.451 201.262 207.557Z" fill="white"/>
</mask>
<g mask="url(#mask16_155_1535)">
<path d="M127.246 158.059C223.12 163.736 203.436 216.321 135.072 227.227C66.7087 238.134 225.422 220.029 225.422 220.029L222.831 167.837L150.128 153.717L130.722 163.52" fill="#6F4EB9"/>
</g>
<path d="M119.527 235.265C129.973 249.954 148.705 257.517 167.237 252.853C185.77 248.188 198.689 232.659 200.937 214.775C189.842 219.915 175.982 224.679 161.09 228.427C146.197 232.175 131.733 234.54 119.527 235.265Z" fill="#9A7ED9"/>
<mask id="mask17_155_1535" style="mask-type:luminance" maskUnits="userSpaceOnUse" x="119" y="214" width="82" height="41">
<path fill-rule="evenodd" clip-rule="evenodd" d="M119.527 235.265C129.973 249.954 148.705 257.517 167.237 252.853C185.77 248.188 198.689 232.659 200.937 214.775C189.842 219.915 175.982 224.679 161.09 228.427C146.197 232.175 131.733 234.54 119.527 235.265Z" fill="white"/>
</mask>
<g mask="url(#mask17_155_1535)">
<path d="M140.036 258.349C112.562 235.507 166.394 230.833 190.435 217.597C214.476 204.361 97.0949 227.459 97.0949 227.459L118.312 252.733" fill="#6F4EB9"/>
</g>
<path d="M225.193 191.815C223.671 185.767 215.169 182.743 199.924 182.831C197.703 182.844 195.371 182.929 192.958 183.072C194.358 185.037 195.596 187.112 196.661 189.277C210.547 188.831 218.412 190.883 219.036 193.365C219.661 195.846 213.704 201.377 201.262 207.557C191.41 212.451 177.494 217.751 159.54 222.27C141.586 226.789 126.819 228.707 115.824 229.061C101.939 229.507 94.0736 227.455 93.4486 224.973C92.8243 222.492 98.7806 216.961 111.223 210.78C111.136 208.37 111.245 205.956 111.548 203.563C109.355 204.578 107.26 205.607 105.298 206.647C91.8274 213.787 85.7697 220.474 87.2921 226.523C88.8145 232.571 97.3164 235.595 112.562 235.507C114.782 235.494 117.115 235.409 119.527 235.265C131.733 234.54 146.197 232.175 161.09 228.427C175.982 224.679 189.842 219.915 200.937 214.775C203.13 213.76 205.225 212.731 207.187 211.691C220.658 204.551 226.715 197.863 225.193 191.815Z" fill="#97CC64"/>
<mask id="mask18_155_1535" style="mask-type:luminance" maskUnits="userSpaceOnUse" x="87" y="182" width="139" height="54">
<path fill-rule="evenodd" clip-rule="evenodd" d="M225.193 191.815C223.671 185.767 215.169 182.743 199.924 182.831C197.703 182.844 195.371 182.929 192.958 183.072C194.358 185.037 195.596 187.112 196.661 189.277C210.547 188.831 218.412 190.883 219.036 193.365C219.661 195.846 213.704 201.377 201.262 207.557C191.41 212.451 177.494 217.751 159.54 222.27C141.586 226.789 126.819 228.707 115.824 229.061C101.939 229.507 94.0736 227.455 93.4486 224.973C92.8243 222.492 98.7806 216.961 111.223 210.78C111.136 208.37 111.245 205.956 111.548 203.563C109.355 204.578 107.26 205.607 105.298 206.647C91.8274 213.787 85.7697 220.474 87.2921 226.523C88.8145 232.571 97.3164 235.595 112.562 235.507C114.782 235.494 117.115 235.409 119.527 235.265C131.733 234.54 146.197 232.175 161.09 228.427C175.982 224.679 189.842 219.915 200.937 214.775C203.13 213.76 205.225 212.731 207.187 211.691C220.658 204.551 226.715 197.863 225.193 191.815Z" fill="white"/>
</mask>
<g mask="url(#mask18_155_1535)">
<path d="M76.8465 209.169C119.136 202.507 115.08 221.502 115.08 221.502L125.508 197.912L108.708 194.432" fill="#75AA3C"/>
<path d="M181.411 176.449C202.555 179.335 204.872 194.432 204.872 194.432L186.914 197.912L181.121 192.369" fill="#75AA3C"/>
</g>
<path d="M154.992 185.107C153.281 188.036 150.886 190.507 148.013 192.309L154.992 185.107Z" fill="#190000"/>
<path d="M154.592 184.873C152.927 187.738 150.589 190.153 147.779 191.909C147.558 192.038 147.484 192.322 147.613 192.543C147.742 192.763 148.026 192.838 148.246 192.709C150.542 191.265 152.546 189.403 154.155 187.22C154.601 186.616 155.014 185.989 155.392 185.341C155.693 184.825 154.893 184.359 154.592 184.873L154.592 184.873Z" fill="#6F4EB9"/>
<path d="M178.448 239.558C177.756 240.509 176.867 241.3 175.842 241.877L178.448 239.558Z" fill="#190000"/>
<path d="M178.048 239.324C178.006 239.383 177.963 239.441 177.919 239.498C177.958 239.447 177.915 239.502 177.897 239.524C177.875 239.552 177.852 239.581 177.829 239.608C177.737 239.72 177.643 239.83 177.545 239.936C177.355 240.145 177.154 240.343 176.943 240.53C176.84 240.622 176.735 240.711 176.628 240.797C176.6 240.819 176.572 240.842 176.543 240.864C176.504 240.895 176.583 240.835 176.516 240.884C176.458 240.927 176.4 240.97 176.341 241.012C176.105 241.18 175.861 241.335 175.609 241.477C175.466 241.56 175.379 241.714 175.379 241.879C175.38 242.045 175.469 242.197 175.613 242.279C175.757 242.361 175.933 242.36 176.076 242.276C177.167 241.655 178.112 240.808 178.848 239.792C178.976 239.571 178.902 239.288 178.682 239.158C178.46 239.037 178.182 239.11 178.048 239.325V239.324Z" fill="#6F4EB9"/>
<path d="M103.699 231.427L101.105 233.757L103.699 231.427Z" fill="#190000"/>
<path d="M103.372 231.099L100.777 233.43C100.598 233.611 100.598 233.903 100.777 234.085C100.96 234.26 101.249 234.26 101.432 234.085L104.027 231.754C104.206 231.572 104.206 231.281 104.027 231.099C103.844 230.924 103.555 230.924 103.372 231.099Z" fill="#75AA3C"/>
<path d="M436.425 189.359C436.425 186.073 433.762 183.409 430.476 183.409H304.696C301.41 183.409 298.746 186.073 298.746 189.359V196.657H436.425V189.359Z" fill="#EFF3FC"/>
<mask id="mask19_155_1535" style="mask-type:luminance" maskUnits="userSpaceOnUse" x="298" y="183" width="139" height="14">
<path fill-rule="evenodd" clip-rule="evenodd" d="M436.425 189.359C436.425 186.073 433.762 183.409 430.476 183.409H304.696C301.41 183.409 298.746 186.073 298.746 189.359V196.657H436.425V189.359Z" fill="white"/>
</mask>
<g mask="url(#mask19_155_1535)">
<path d="M363.88 180.048C341.217 187.07 440.486 179.377 439.847 191.523C439.209 203.668 437.932 173.345 437.932 173.345L388.777 174.622" fill="#D6DCF2"/>
</g>
<path d="M298.746 196.657V269.499C298.746 272.785 301.41 275.449 304.696 275.449H430.476C433.762 275.449 436.425 272.785 436.425 269.499V196.657H298.746Z" fill="#D6DCF2"/>
<mask id="mask20_155_1535" style="mask-type:luminance" maskUnits="userSpaceOnUse" x="298" y="196" width="139" height="80">
<path fill-rule="evenodd" clip-rule="evenodd" d="M298.746 196.657V269.499C298.746 272.785 301.41 275.449 304.696 275.449H430.476C433.762 275.449 436.425 272.785 436.425 269.499V196.657H298.746Z" fill="white"/>
</mask>
<g mask="url(#mask20_155_1535)">
<path d="M295.892 260.128C295.413 279.796 430.476 275.449 430.476 275.449L300.68 298.947L280.092 285.062" fill="#BFC8E2"/>
</g>
<circle cx="306.226" cy="189.875" r="1.6481" fill="#BB393C"/>
<circle cx="313.151" cy="189.875" r="1.6481" fill="#FFC562"/>
<circle cx="320.076" cy="189.875" r="1.6481" fill="#75AA3C"/>
<rect x="309.578" y="203.997" width="116.015" height="62.8476" rx="2.49141" fill="#9A7ED9"/>
<mask id="mask21_155_1535" style="mask-type:luminance" maskUnits="userSpaceOnUse" x="309" y="203" width="117" height="64">
<rect x="309.578" y="203.997" width="116.015" height="62.8476" rx="2.49141" fill="white"/>
</mask>
<g mask="url(#mask21_155_1535)">
<path d="M422.771 197.626C425.593 264.353 293.977 269.55 293.977 269.55L442.88 293.202L452.61 229.429" fill="#6F4EB9"/>
</g>
<ellipse opacity="0.36" cx="367.586" cy="232.525" rx="18.4004" ry="18.4232" fill="#EFF3FC"/>
<path d="M362.459 232.525V225.737C362.459 225.325 362.678 224.943 363.035 224.737C363.392 224.531 363.832 224.531 364.189 224.737L370.061 228.131L375.932 231.525C376.289 231.731 376.509 232.113 376.509 232.525C376.509 232.937 376.289 233.319 375.932 233.525L370.061 236.919L364.189 240.313C363.832 240.52 363.392 240.519 363.035 240.313C362.678 240.107 362.459 239.725 362.459 239.313V232.525Z" fill="#EFF3FC"/>
<path d="M328.555 220.534C327.536 221.73 326.28 222.703 324.867 223.392C324.626 223.535 324.544 223.846 324.684 224.09C324.831 224.327 325.138 224.408 325.382 224.273C326.869 223.538 328.194 222.511 329.277 221.255C329.471 221.054 329.471 220.735 329.277 220.534C329.086 220.358 328.741 220.318 328.555 220.534L328.555 220.534Z" fill="#6F4EB9"/>
<path d="M413.538 254.885L410.665 255.843C410.394 255.918 410.234 256.199 410.309 256.471C410.384 256.742 410.665 256.902 410.937 256.827L413.809 255.869C413.986 255.821 414.123 255.683 414.169 255.506C414.216 255.329 414.164 255.141 414.033 255.013C413.903 254.885 413.714 254.836 413.538 254.885Z" fill="#6F4EB9"/>
</g>
</g>
<defs>
<filter id="filter0_d_155_1535" x="51.5743" y="18.1508" width="416.851" height="377.82" filterUnits="userSpaceOnUse" color-interpolation-filters="sRGB">
<feFlood flood-opacity="0" result="BackgroundImageFix"/>
<feColorMatrix in="SourceAlpha" type="matrix" values="0 0 0 0 0 0 0 0 0 0 0 0 0 0 0 0 0 0 127 0" result="hardAlpha"/>
<feOffset dy="12"/>
<feGaussianBlur stdDeviation="16"/>
<feComposite in2="hardAlpha" operator="out"/>
<feColorMatrix type="matrix" values="0 0 0 0 0 0 0 0 0 0 0 0 0 0 0 0 0 0 0.5 0"/>
<feBlend mode="normal" in2="BackgroundImageFix" result="effect1_dropShadow_155_1535"/>
<feBlend mode="normal" in="SourceGraphic" in2="effect1_dropShadow_155_1535" result="shape"/>
</filter>
</defs>
</svg>
